#!OML:ASF H:\BreakDance\Project 1\Capture day 1\Session 1\Male.ASF
:FULLY-SPECIFIED
:DEGREES
629
root 24.7583 15.1099 -2.66813 -186.865 144.563 174.035
lowerback 7.06233 -1.21296 -10.8757
upperback 0.839884 -2.48988 -2.48535
thorax -2.73925 -1.11541 3.71741
lowerneck -2.32005 -16.1041 -9.86474
upperneck -17.8054 -19.3185 24.0801
head -1.25769 -10.0895 8.46722
rclavicle 4.55403e-014 -6.52014e-014
rhumerus 36.9465 57.8734 -44.378
rradius 68.3797
rwrist -5.95748
rhand -26.9269 711.849
rfingers 7.12502
rthumb -0.349517 -38.1301
lclavicle 4.55403e-014 -6.52014e-014
lhumerus 23.2825 -33.3398 43.1067
lradius 69.0282
lwrist 4.29397
lhand -13.6999 -386.158
lfingers 7.12502
lthumb 12.4185 3.45313
rfemur -28.5093 -12.7539 13.0122
rtibia 65.5714
rfoot -13.8775 -8.3881
rtoes -29.6776
lfemur -40.0812 5.40921 -5.37282
ltibia 49.9564
lfoot -28.0086 -1.91635
ltoes -41.031
630
root 24.7741 15.1791 -2.66155 -185.782 148.42 175.186
lowerback 6.86203 -1.12539 -10.7459
upperback 0.785359 -2.3438 -2.37324
thorax -2.70591 -1.04675 3.74612
lowerneck -2.77086 -15.8125 -9.72248
upperneck -17.1946 -19.0151 23.695
head -1.12202 -9.90268 8.29366
rclavicle -4.07509e-015 -2.54444e-014
rhumerus 37.3955 58.3521 -43.6387
rradius 69.426
rwrist -5.53837
rhand -26.5734 711.781
rfingers 7.12502
rthumb -0.00807287 -38.1992
lclavicle -4.07509e-015 -2.54444e-014
lhumerus 23.102 -34.0214 41.2796
lradius 70.533
lwrist 4.41594
lhand -13.699 -386.306
lfingers 7.12502
lthumb 12.4193 3.30518
rfemur -28.9467 -12.8567 12.9703
rtibia 64.2285
rfoot -13.8113 -8.31949
rtoes -31.2523
lfemur -38.4689 3.76821 -4.9119
ltibia 48.4757
lfoot -27.98 -3.15279
ltoes -43.3328
631
root 24.7919 15.2418 -2.6518 -184.955 152.389 176.203
lowerback 6.82014 -0.978843 -10.6191
upperback 0.762003 -2.1389 -2.27409
thorax -2.73729 -0.946391 3.7631
lowerneck -3.23323 -15.4762 -9.50378
upperneck -16.5559 -18.6547 23.2491
head -0.998934 -9.68755 8.09755
rclavicle 5.32867e-014 1.27222e-014
rhumerus 37.7723 58.7694 -42.9388
rradius 70.4866
rwrist -5.06507
rhand -26.2081 711.566
rfingers 7.12502
rthumb 0.344739 -38.4134
lclavicle 5.32867e-014 1.27222e-014
lhumerus 22.8034 -34.7061 39.53
lradius 72.1064
lwrist 4.52596
lhand -13.7721 -386.444
lfingers 7.12502
lthumb 12.3488 3.17145
rfemur -29.5159 -13.0601 13.0315
rtibia 63.2124
rfoot -13.5842 -8.29161
rtoes -32.2848
lfemur -36.7672 2.08938 -4.53085
ltibia 47.0851
lfoot -28.0421 -4.37028
ltoes -44.9202
632
root 24.8127 15.2976 -2.63809 -184.345 156.436 177.082
lowerback 6.87603 -0.798176 -10.4744
upperback 0.767111 -1.89784 -2.179
thorax -2.79921 -0.827555 3.76494
lowerneck -3.55023 -15.0414 -9.29648
upperneck -15.9849 -18.1541 22.8547
head -0.929033 -9.41506 7.94974
rclavicle 1.0312e-014 9.54166e-015
rhumerus 38.1305 59.149 -42.237
rradius 71.5507
rwrist -4.54336
rhand -25.8606 711.243
rfingers 7.12502
rthumb 0.680349 -38.7359
lclavicle 1.0312e-014 9.54166e-015
lhumerus 22.347 -35.3798 37.9186
lradius 73.7144
lwrist 4.58669
lhand -13.8903 -386.586
lfingers 7.12502
lthumb 12.2349 3.03605
rfemur -30.1694 -13.3652 13.2344
rtibia 62.4466
rfoot -13.3393 -8.17553
rtoes -32.6005
lfemur -35.0305 0.424078 -4.24085
ltibia 45.8218
lfoot -28.1483 -5.54635
ltoes -45.6369
633
root 24.8372 15.3466 -2.619 -183.902 160.506 177.823
lowerback 6.94951 -0.602946 -10.2631
upperback 0.805887 -1.63159 -2.09081
thorax -2.84068 -0.69897 3.71967
lowerneck -3.81127 -14.5601 -9.05189
upperneck -15.4087 -17.5965 22.4003
head -0.88279 -9.11649 7.78876
rclavicle 6.47044e-014 -2.38542e-014
rhumerus 38.5058 59.4782 -41.4911
rradius 72.5906
rwrist -4.00134
rhand -25.5646 710.879
rfingers 7.12502
rthumb 0.966308 -39.0989
lclavicle 6.47044e-014 -2.38542e-014
lhumerus 21.7743 -36.0769 36.4362
lradius 75.3454
lwrist 4.64502
lhand -14.0146 -386.681
lfingers 7.12502
lthumb 12.1151 2.94812
rfemur -30.8524 -13.7549 13.5888
rtibia 61.8346
rfoot -13.2108 -7.84938
rtoes -31.7166
lfemur -33.3323 -1.18358 -4.05235
ltibia 44.7272
lfoot -28.2786 -6.55934
ltoes -45.6853
